<?xml version="1.0" encoding="UTF-8"?>
<svg id="a" data-name="Layer 1" xmlns="http://www.w3.org/2000/svg" viewBox="0 0 1339 281.81">
  <defs>
    <style>
      .b {
        fill: none;
        stroke: #24252a;
        stroke-miterlimit: 10;
        stroke-width: 8px;
      }

      .c {
        fill: #24252a;
      }
    </style>
  </defs>
  <g>
    <path class="c" d="m94.03,148.09h68.02c-.42,15.68-2.33,27.34-6.99,39.2-9.96,26.28-35.18,42.17-65.91,42.17-41.54,0-70.36-28.4-70.36-69.51,0-44.71,32.63-77.35,77.35-77.35,18.01,0,33.06,5.09,45.14,15.26,8.9,7.63,12.5,12.5,18.22,26.07l-31.15,12.08c-6.99-15.47-17.59-23.1-33.06-23.1-22.46,0-39.63,19.92-39.63,46.41,0,22.89,15.47,39.2,37.08,39.2,15.47,0,27.55-8.69,30.73-22.04h-32.85l3.39-28.4Z"/>
    <path class="c" d="m259.75,171.83l33.06,54.89h-41.54l-32.21-56.16-6.78,56.16h-35.81l17.38-141.35h45.99c19.28,0,31.15,3.81,39.2,12.29,6.78,7.21,10.81,18.86,10.81,31.58s-3.81,23.31-11.44,31.36c-5.09,5.51-8.9,7.84-18.65,11.23Zm-33.69-58.06l-4.45,36.24h6.36c17.17,0,25.01-6.36,25.01-19.71,0-12.29-5.09-16.53-20.13-16.53h-6.78Z"/>
    <path class="c" d="m463.82,148.94v2.75c0,46.41-30.94,77.77-76.71,77.77s-77.14-28.82-77.14-71.42,33.06-75.44,79.89-75.44c42.81,0,72.26,26.28,73.96,66.33Zm-36.87,4.03c-1.27-22.25-16.32-36.45-38.57-36.45-24.16,0-41.75,16.95-41.75,40.26s15.89,38.78,39.63,38.78,40.9-16.32,40.9-40.05c0-.85,0-1.7-.21-2.54Z"/>
    <path class="c" d="m618.09,85.36l-9.96,81.8c-3.39,27.12-6.99,37.93-16.11,46.62-10.6,10.17-27.55,15.68-48.32,15.68-36.66,0-58.91-18.01-58.91-48.32,0-4.24.64-10.81,1.7-19.5l9.32-76.29h35.6l-9.32,76.29c-.42,4.24-.64,8.26-.64,11.87,0,14.83,7.63,22.04,23.31,22.04,8.9,0,15.89-2.33,20.13-6.99,4.45-5.09,5.93-9.96,7.63-22.67l9.75-80.53h35.81Z"/>
    <path class="c" d="m647.76,85.36h47.26c16.11,0,30.52,2.12,41.11,12.5s11.87,23.1,11.87,32.42c0,10.17-1.48,22.89-11.02,33.27-9.75,10.6-26.7,16.32-49.16,16.32h-15.89l-5.72,46.83h-35.81l17.38-141.35Zm32.21,29.67l-4.24,35.18h11.23c5.09,0,14.41-.42,19.92-5.93,4.03-4.03,4.45-9.32,4.45-12.5,0-6.15-1.91-9.96-4.03-12.08-4.66-4.87-12.29-4.66-17.38-4.66h-9.96Z"/>
    <path class="c" d="m797.16,178.61h36.87v2.97c0,11.44,7.21,18.22,19.5,18.22s19.71-6.78,19.71-17.38c0-9.96-7.21-16.32-18.44-16.32-.85,0-2.33,0-4.45.21l3.39-26.7c3.18.42,4.87.64,6.36.64,9.96,0,16.74-6.15,16.74-15.26,0-8.05-6.15-13.77-14.83-13.77-9.54,0-14.41,4.87-16.11,17.17h-36.66c2.12-14.83,8.26-28.18,17.38-35.6,8.9-7.21,19.92-10.6,34.97-10.6,31.36,0,50.44,15.47,50.44,41.11,0,14.41-5.09,22.89-18.44,30.09,11.66,6.36,16.32,14.83,16.32,29.24,0,27.97-22.89,47.26-56.37,47.26-35.81,0-55.95-18.22-56.37-51.28Z"/>
    <path class="c" d="m1035.35,85.36l-3.81,31.15h-49.59l-5.72,17.38c5.51-.64,7.84-.64,11.02-.64,29.88,0,47.26,15.68,47.26,42.38,0,31.36-26.49,54.25-63.15,54.25-13.77,0-24.79-2.12-36.87-7.21-4.66-1.91-7.21-3.39-16.32-8.05l10.17-32.42c8.9,7.63,15.26,11.02,25.43,14.2,5.51,1.48,11.87,2.54,16.53,2.54,16.32,0,27.55-9.11,27.55-22.25s-10.81-20.98-30.09-20.98c-11.23,0-19.28,1.7-33.48,6.78l24.79-77.14h76.29Z"/>
    <path class="c" d="m1172.03,140.89c.21,1.27.21,2.54.21,3.81,0,22.67-6.57,45.14-17.8,61.03-11.87,16.53-26.7,24.16-47.26,24.16-35.39,0-57.43-24.79-57.43-64.63,0-48.74,27.55-83.07,66.75-83.07,32.63,0,54.04,22.67,55.52,58.7Zm-36.03,3.39c0-19.5-6.99-30.94-19.07-30.94-17.59,0-31.15,22.25-31.15,51.5,0,20.98,7.84,34.12,20.77,34.12,17.59,0,29.46-22.25,29.46-54.67Z"/>
    <path class="c" d="m1282.01,200.22l-3.39,26.49h-32.63l3.18-26.49h-66.96l1.91-28.61,69.3-86.25h42.59l-10.6,86.46h14.2l-3.39,28.4h-14.2Zm-29.24-28.4l2.54-20.98c1.27-11.02,3.39-23.52,5.51-33.91-4.24,6.36-9.75,13.99-12.71,17.8l-29.24,37.08h33.91Z"/>
  </g>
  <g>
    <path class="c" d="m39.46,50.17c0-12.77,7.68-20.43,18.02-20.43,4.82,0,8.67,2.31,11.12,4.86l-3.61,4.02c-1.98-2-4.38-3.27-7.51-3.27-6.79,0-11.39,5.57-11.39,14.63s4.6,14.84,11.52,14.84c3.31,0,5.92-1.5,8.17-4l3.61,3.9c-3.11,3.66-7.18,5.72-12.42,5.72-9.72,0-17.51-7.31-17.51-20.27Z"/>
    <path class="c" d="m86.45,49.91c0-12.85,6.3-20.17,15.34-20.17s15.34,7.33,15.34,20.17-6.3,20.53-15.34,20.53-15.34-7.46-15.34-20.53Zm24.05,0c0-9.25-3.45-14.56-8.71-14.56s-8.71,5.31-8.71,14.56,3.45,14.92,8.71,14.92,8.71-5.44,8.71-14.92Z"/>
    <path class="c" d="m135.8,30.45h7.28l4.9,15.72,1.7,6.01h.24l1.65-6.01,4.95-15.72h7.28v39.26h-5.78v-16.9c0-4.05.66-11.8.97-15.47h-.18l-2.51,8.71-4.69,13.26h-3.85l-4.63-13.26-2.47-8.71h-.15c.39,3.68.97,11.43.97,15.47v16.9h-5.66V30.45Z"/>
    <path class="c" d="m185.31,30.45h12.61c8.62,0,14.85,2.99,14.85,11.94s-6.34,12.58-14.85,12.58h-6.17v14.74h-6.44V30.45Zm12.04,19.36c6.11,0,9.05-2.39,9.05-7.42s-3.04-6.79-9.05-6.79h-5.61v14.2h5.61Z"/>
    <path class="c" d="m230.93,65.17l3.02-4.14c2.55,2.22,5.59,4.17,10.13,4.17,4.98,0,8.82-2.88,8.82-7.7s-3.43-7.44-8.47-7.44c-2.94,0-4.64.67-7.29,2.15l-3.12-2,1.18-18.72h22.28v5.46h-16.71l-.88,9.76c2.05-.83,3.8-1.31,6.32-1.31,7.21,0,13.12,3.72,13.12,11.94s-6.93,13.09-14.44,13.09c-6.76,0-10.94-2.5-13.96-5.27Z"/>
    <path class="c" d="m279.72,50.47c0-12.89,5.44-19.69,14.07-19.69s14.07,6.8,14.07,19.69-5.44,19.96-14.07,19.96-14.07-7.16-14.07-19.96Zm22.34,0c0-10.58-3.49-14.64-8.26-14.64s-8.26,4.06-8.26,14.64,3.49,14.91,8.26,14.91,8.26-4.33,8.26-14.91Zm-12.27-.31c0-2.57,1.82-4.18,4-4.18s4.01,1.61,4.01,4.18-1.82,4.23-4.01,4.23-4-1.61-4-4.23Z"/>
    <path class="c" d="m329.21,64.48h10.75v-25.86h-8.53v-4.06c4.74-.66,7.55-1.58,10.19-3.06h4.73v32.98h9.48v5.23h-26.63v-5.23Z"/>
    <path class="c" d="m424.56,47.6h26.46v4.64h-26.46v-4.64Z"/>
    <path class="c" d="m530.02,30.45h7.54l12.86,39.26h-6.86l-6.15-21.17c-1.24-4.21-2.51-8.62-3.61-13.02h-.24c-1.15,4.4-2.35,8.82-3.58,13.02l-6.23,21.17h-6.59l12.86-39.26Zm-5.46,23.18h18.3v5.11h-18.3v-5.11Z"/>
    <path class="c" d="m567.44,64.68l3.76-4.43c2.98,2.75,6.91,4.57,11.11,4.57,4.8,0,7.41-2.17,7.41-5.15,0-3.69-2.79-4.7-6.66-6.33l-5.48-2.39c-4.06-1.59-8.4-4.56-8.4-10.33,0-6.17,5.56-10.88,13.42-10.88,4.84,0,9.32,1.9,12.44,4.96l-3.31,4.1c-2.64-2.17-5.44-3.44-9.42-3.44s-6.62,1.81-6.62,4.89c0,3.26,3.28,4.45,6.78,5.8l5.25,2.3c4.96,1.92,8.57,4.84,8.57,10.55,0,6.33-5.34,11.55-14.36,11.55-5.59,0-10.74-2.15-14.5-5.76Z"/>
    <path class="c" d="m615.44,64.68l3.76-4.43c2.98,2.75,6.91,4.57,11.11,4.57,4.8,0,7.41-2.17,7.41-5.15,0-3.69-2.79-4.7-6.66-6.33l-5.48-2.39c-4.06-1.59-8.4-4.56-8.4-10.33,0-6.17,5.56-10.88,13.42-10.88,4.84,0,9.32,1.9,12.44,4.96l-3.31,4.1c-2.64-2.17-5.44-3.44-9.42-3.44s-6.62,1.81-6.62,4.89c0,3.26,3.28,4.45,6.78,5.8l5.25,2.3c4.96,1.92,8.57,4.84,8.57,10.55,0,6.33-5.34,11.55-14.36,11.55-5.58,0-10.74-2.15-14.5-5.76Z"/>
    <path class="c" d="m665.03,64.3h9.54v-28.43h-9.54v-5.42h25.52v5.42h-9.54v28.43h9.54v5.42h-25.52v-5.42Z"/>
    <path class="c" d="m710.76,50.17c0-12.85,7.51-20.43,17.7-20.43,5.24,0,8.75,2.44,11.07,4.86l-3.61,4.02c-1.8-1.87-3.93-3.27-7.46-3.27-6.56,0-11.01,5.57-11.01,14.63s3.94,14.84,11.06,14.84c2.28,0,4.47-.68,5.69-1.87v-8.98h-7.02v-5.27h12.89v17.1c-2.51,2.49-6.87,4.62-11.93,4.62-9.93,0-17.37-7.31-17.37-20.27Z"/>
    <path class="c" d="m760.36,30.45h6.82l11,22.78,3.62,8.32h.15c-.26-3.98-.87-8.8-.87-13.11v-17.99h6.13v39.26h-6.82l-11-22.8-3.62-8.3h-.15c.26,4.13.87,8.71.87,12.98v18.12h-6.13V30.45Z"/>
    <path class="c" d="m807.79,30.45h7.28l4.9,15.72,1.7,6.01h.24l1.65-6.01,4.95-15.72h7.28v39.26h-5.78v-16.9c0-4.05.66-11.8.97-15.47h-.18l-2.51,8.71-4.69,13.26h-3.85l-4.63-13.26-2.47-8.71h-.15c.39,3.68.97,11.43.97,15.47v16.9h-5.66V30.45Z"/>
    <path class="c" d="m858.15,30.45h24.93v5.42h-18.5v10.67h15.65v5.42h-15.65v12.35h19.09v5.42h-25.53V30.45Z"/>
    <path class="c" d="m904.36,30.45h6.82l11,22.78,3.62,8.32h.15c-.26-3.98-.87-8.8-.87-13.11v-17.99h6.13v39.26h-6.82l-11-22.8-3.62-8.3h-.15c.26,4.13.87,8.71.87,12.98v18.12h-6.13V30.45Z"/>
    <path class="c" d="m962.57,35.87h-12.54v-5.42h31.52v5.42h-12.54v33.85h-6.43v-33.85Z"/>
    <path class="c" d="m1046.87,65.04l3.09-4.1c2.52,2.34,5.98,4.26,10.36,4.26,4.82,0,8.39-2.3,8.39-6.07,0-4.12-3.38-6.81-12.99-6.81v-4.68c8.47,0,11.7-2.74,11.7-6.39,0-3.29-2.81-5.33-7.01-5.33-3.38,0-6.38,1.48-8.93,3.65l-3.31-3.94c3.37-2.85,7.57-4.83,12.49-4.83,7.61,0,13.18,3.62,13.18,9.99,0,4.37-3.17,7.26-7.84,8.88v.24c4.99,1.14,9.13,4.41,9.13,9.56,0,6.89-6.54,10.98-14.32,10.98-6.57,0-11.09-2.44-13.96-5.4Z"/>
  </g>
  <line class="b" x1="2" y1="4" x2="276" y2="4"/>
  <line class="b" x1="4" y1="197" x2="4"/>
  <line class="b" x1="1339" y1="257" x2="740" y2="257"/>
  <line class="b" x1="1335" y1="108" x2="1335" y2="260"/>
</svg>